<?xml version="1.0" ?><svg height="58px" version="1.1" viewBox="0 0 58 58" width="58px" xmlns="http://www.w3.org/2000/svg" xmlns:xlink="http://www.w3.org/1999/xlink"><title/><desc/><defs/><g fill="none" fill-rule="evenodd" id="Page-1" stroke="none" stroke-width="1"><g id="027---Reindeer" transform="translate(-1.000000, -1.000000)"><path d="M29.999,17.99951 C29.5021474,17.9988412 29.0809909,17.6338091 29.00975,17.14209 C29.00096,17.07617 28.0156,10.51172 24.40037,7.7998 C24.1134855,7.58598486 23.962759,7.23514113 24.0051547,6.87986343 C24.0475503,6.52458573 24.2766019,6.21906133 24.6057439,6.07875728 C24.9348858,5.93845323 25.313917,5.98476883 25.59959,6.2002 C27.6652252,7.95667657 29.1827704,10.2696011 29.97166,12.86377 C30.6981888,11.2368586 31.9627283,9.9097101 33.55266,9.10547 C34.0464515,8.86003551 34.6457319,9.06058358 34.8923383,9.55379088 C35.1389447,10.0469982 34.9398203,10.6467531 34.4472,10.89453 C31.03906,12.59814 31,16.95605 31,17 C30.9998905,17.5245102 30.5944722,17.9597703 30.07129,17.99707 C30.04688,17.999 30.02344,17.99951 29.999,17.99951 Z" fill="#936642" fill-rule="nonzero" id="Shape"/><path d="M38.88,18.6616 L40.66,15.30132 C41.0163918,14.6469582 41.7049206,14.2428072 42.45,14.25063 L56.87,14.25063 C57.8490292,14.2889684 58.7192638,13.6315731 58.95,12.67935 C59.1004931,11.7329663 58.5211723,10.8230679 57.6,10.559 C57.2197043,10.4298321 56.9655236,10.0708481 56.97,9.66924 L56.97,2.996 C56.9682862,1.91215202 56.1041247,1.02660541 55.0206423,0.998402369 C53.93716,0.970199324 53.0280984,1.80958893 52.97,2.89188 L52.97,9.51784 C52.9408105,10.0487971 52.5017589,10.4643747 51.97,10.4643747 C51.4382411,10.4643747 50.9991895,10.0487971 50.97,9.51784 L50.97,2.996 C50.9682862,1.91215202 50.1041247,1.02660541 49.0206423,0.998402369 C47.93716,0.970199324 47.0280984,1.80958893 46.97,2.89188 L46.97,9.51784 C46.9408105,10.0487971 46.5017589,10.4643747 45.97,10.4643747 C45.4382411,10.4643747 44.9991895,10.0487971 44.97,9.51784 L44.97,2.996 C44.9682862,1.91215202 44.1041247,1.02660541 43.0206423,0.998402369 C41.93716,0.970199324 41.0280984,1.80958893 40.97,2.89188 L40.97,9.95325 C40.9711301,10.3463444 40.7218203,10.69652 40.35,10.82409 C38.9486015,11.3071179 37.7809078,12.3008752 37.08,13.607 L35.23,17.09981 C35.22,17.12821 35.2,17.14714 35.2,17.17553 L38.88,18.6616 Z" fill="#926F66" fill-rule="nonzero" id="Shape"/><path d="M24.75,17.185 C24.74,17.1566 24.72,17.12821 24.71,17.09981 L22.87,13.607 C22.1690863,12.3008865 21.0013934,11.3071406 19.6,10.82412 C19.2234635,10.7010499 18.969079,10.3494178 18.97,9.95328 L18.97,2.89192 C18.95117,2.31834234 18.6823844,1.78170151 18.2343227,1.42311176 C17.786261,1.06452202 17.2037624,0.919868834 16.64,1.02719 C15.6750132,1.18365517 14.9669461,2.0184155 14.97,2.996 L14.97,9.5178 C14.9408105,10.0487571 14.5017589,10.4643347 13.97,10.4643347 C13.4382411,10.4643347 12.9991895,10.0487571 12.97,9.5178 L12.97,2.89192 C12.95117,2.31834234 12.6823844,1.78170151 12.2343227,1.42311176 C11.786261,1.06452202 11.2037624,0.919868834 10.64,1.02719 C9.67501325,1.18365517 8.96694607,2.0184155 8.97,2.996 L8.97,9.5178 C8.94081049,10.0487571 8.50175886,10.4643347 7.97,10.4643347 C7.43824114,10.4643347 6.99918951,10.0487571 6.97,9.5178 L6.97,2.89192 C6.95116997,2.31834234 6.68238437,1.78170151 6.23432266,1.42311176 C5.78626096,1.06452202 5.20376242,0.919868834 4.64,1.02719 C3.67501325,1.18365517 2.96694607,2.0184155 2.97,2.996 L2.97,9.66929 C2.97873292,10.0691218 2.72811612,10.4287812 2.35,10.55905 C1.42616001,10.8195067 0.845126391,11.7320738 1,12.67935 C1.2279871,13.6333742 2.09998972,14.2921051 3.08,14.25063 L17.5,14.25063 C18.2450794,14.2428072 18.9336082,14.6469582 19.29,15.30132 L21.08,18.69 L24.75,17.185 Z" fill="#926F66" fill-rule="nonzero" id="Shape"/><path d="M52,45.5 C51.9748571,47.3859176 51.3709492,49.2185862 50.27,50.75 C49.0146497,52.4939768 47.4107825,53.9582292 45.56,55.05 C43.3822636,56.3538818 41.0233007,57.3277965 38.56,57.94 C32.9408412,59.3533341 27.0591588,59.3533341 21.44,57.94 C18.9766993,57.3277965 16.6177364,56.3538818 14.44,55.05 C12.5892175,53.9582292 10.9853503,52.4939768 9.73,50.75 C7.42335917,47.6300423 7.42335917,43.3699577 9.73,40.25 C10.9853503,38.5060232 12.5892175,37.0417708 14.44,35.95 C15.5737367,35.2590451 16.764791,34.6668636 18,34.18 L18,25 C17.9994109,22.8780875 18.8420765,20.842914 20.3424952,19.3424952 C21.842914,17.8420765 23.8780875,16.9994109 26,17 L34,17 C36.1219125,16.9994109 38.157086,17.8420765 39.6575048,19.3424952 C41.1579235,20.842914 42.0005891,22.8780875 42,25 L42,34.18 C43.235209,34.6668636 44.4262633,35.2590451 45.56,35.95 C47.4107825,37.0417708 49.0146497,38.5060232 50.27,40.25 C51.3709492,41.7814138 51.9748571,43.6140824 52,45.5 Z" fill="#D69564" id="Shape"/><path d="M20,36.18066 C19.5204178,36.180274 19.108565,35.8396297 19.018226,35.3686328 C18.927887,34.8976359 19.184475,34.4287821 19.62988,34.25098 C20.7915161,33.7890732 21.9814317,33.4017302 23.19238,33.09131 C23.7274059,32.9543158 24.2721858,33.2769841 24.40918,33.81201 C24.5461742,34.3470359 24.2235059,34.8918158 23.68848,35.02881 C22.560474,35.3179547 21.4520959,35.67888 20.37012,36.10938 C20.2523876,36.1564113 20.1267787,36.1806018 20,36.18066 L20,36.18066 Z" fill="#936642" fill-rule="nonzero" id="Shape"/><path d="M40,36.18066 C39.8732213,36.1806018 39.7476124,36.1564113 39.62988,36.10938 C38.5479041,35.67888 37.439526,35.3179547 36.31152,35.02881 C35.7764941,34.8918158 35.4538258,34.3470359 35.59082,33.81201 C35.7278142,33.2769841 36.2725941,32.9543158 36.80762,33.09131 C38.0185683,33.4017302 39.2084839,33.7890732 40.37012,34.25098 C40.815525,34.4287821 41.072113,34.8976359 40.981774,35.3686328 C40.891435,35.8396297 40.4795822,36.180274 40,36.18066 L40,36.18066 Z" fill="#936642" fill-rule="nonzero" id="Shape"/><ellipse cx="25" cy="26.5" fill="#EBECED" fill-rule="nonzero" id="Oval" rx="3" ry="3.5"/><ellipse cx="35" cy="26.5" fill="#EBECED" fill-rule="nonzero" id="Oval" rx="3" ry="3.5"/><path d="M25,28.5 C24.1715729,28.5 23.5,27.8284271 23.5,27 C23.5,26.1715729 24.1715729,25.5 25,25.5 C25.8284271,25.5 26.5,26.1715729 26.5,27 C26.4990961,27.8280524 25.8280524,28.4990961 25,28.5 L25,28.5 Z M25,26.5 C24.7238576,26.5 24.5,26.7238576 24.5,27 C24.5,27.2761424 24.7238576,27.5 25,27.5 C25.2761424,27.5 25.5,27.2761424 25.5,27 C25.4996419,26.7240061 25.2759939,26.5003581 25,26.5 Z" fill="#3A3E48" fill-rule="nonzero" id="Shape"/><path d="M35,28.5 C34.1715729,28.5 33.5,27.8284271 33.5,27 C33.5,26.1715729 34.1715729,25.5 35,25.5 C35.8284271,25.5 36.5,26.1715729 36.5,27 C36.4990961,27.8280524 35.8280524,28.4990961 35,28.5 L35,28.5 Z M35,26.5 C34.7238576,26.5 34.5,26.7238576 34.5,27 C34.5,27.2761424 34.7238576,27.5 35,27.5 C35.2761424,27.5 35.5,27.2761424 35.5,27 C35.4996419,26.7240061 35.2759939,26.5003581 35,26.5 Z" fill="#3A3E48" fill-rule="nonzero" id="Shape"/><path d="M23,22 C22.5956041,21.9999137 22.2310659,21.7562725 22.076322,21.3826546 C21.9215781,21.0090366 22.0070921,20.5789943 22.293,20.293 C22.9973151,19.5324095 23.9657465,19.0698378 25,19 C25.5481649,19.0002527 25.9939752,19.4417182 25.9995963,19.9898543 C26.0052174,20.5379904 25.5685544,20.9885056 25.02051,21 C24.5139275,21.0761694 24.04959,21.3261059 23.70703,21.707 C23.5197324,21.8948595 23.2652762,22.0003086 23,22 Z" fill="#936642" fill-rule="nonzero" id="Shape"/><path d="M37,22 C36.7347342,22.0003006 36.4802902,21.8948521 36.293,21.707 C35.9505436,21.3243381 35.4846842,21.0739565 34.97659,20.99948 C34.4320187,20.9732694 34.0061766,20.5202198 34.0137,19.97507 C34.0213594,19.4353827 34.4602604,19.001479 35,19 C36.0342535,19.0698378 37.0026849,19.5324095 37.707,20.293 C37.9929079,20.5789943 38.0784219,21.0090366 37.923678,21.3826546 C37.7689341,21.7562725 37.4043959,21.9999137 37,22 Z" fill="#936642" fill-rule="nonzero" id="Shape"/><path d="M50.06,51.04 C48.8290094,52.6509997 47.3016436,54.0120523 45.56,55.05 C43.3822636,56.3538818 41.0233007,57.3277965 38.56,57.94 C32.9408412,59.3533341 27.0591588,59.3533341 21.44,57.94 C18.9766993,57.3277965 16.6177364,56.3538818 14.44,55.05 C12.6983564,54.0120523 11.1709906,52.6509997 9.94,51.04 L10,51 C13,39 23,41 23,41 L37,41 C37,41 47,39 50,51 L50.06,51.04 Z" fill="#D78469" id="Shape"/><ellipse cx="30" cy="52.5" fill="#D8625E" fill-rule="nonzero" id="Oval" rx="5" ry="3.5"/><ellipse cx="30" cy="40" fill="#D8625E" fill-rule="nonzero" id="Oval" rx="7" ry="4"/><ellipse cx="31.5" cy="39" fill="#FE9189" fill-rule="nonzero" id="Oval" rx="1.5" ry="1"/></g></g></svg>